<svg width="30" height="23" viewBox="0 0 30 23" fill="none" xmlns="http://www.w3.org/2000/svg">
<path d="M9.42377 23C20.7443 23 26.9388 14.1486 26.9388 6.48573C26.9388 6.23671 26.9388 5.9877 26.9268 5.73868C28.1273 4.92372 29.1717 3.8937 30 2.72785C28.8956 3.19193 27.7071 3.49754 26.4586 3.64469C27.7311 2.93159 28.7035 1.78839 29.1717 0.430118C27.9832 1.09793 26.6627 1.57333 25.2581 1.83366C24.1297 0.701771 22.533 0 20.7683 0C17.3709 0 14.6098 2.60335 14.6098 5.80659C14.6098 6.25935 14.6699 6.70079 14.7659 7.1309C9.65186 6.89321 5.11405 4.57283 2.07683 1.06398C1.54862 1.92421 1.2485 2.92028 1.2485 3.98425C1.2485 5.99902 2.34094 7.77608 3.98559 8.81742C2.97719 8.78346 2.02881 8.52313 1.20048 8.09301C1.20048 8.11565 1.20048 8.13829 1.20048 8.17224C1.20048 10.9793 3.32533 13.3337 6.13445 13.8656C5.61825 14.0015 5.07803 14.0694 4.51381 14.0694C4.11765 14.0694 3.73349 14.0354 3.36134 13.9675C4.14166 16.2766 6.42257 17.9518 9.11164 17.997C6.9988 19.5591 4.34574 20.4872 1.46459 20.4872C0.97239 20.4872 0.480192 20.4646 0 20.408C2.71309 22.0379 5.95438 23 9.42377 23Z" fill="#202A93"/>
</svg>
